PathFileType	4	(X/Y/Z)	D:\Share\Shared_Data\Ergonomics\Sit To Stand Pertubation\S0\Perturbed STS.trc
DataRate	CameraRate	NumFrames	NumMarkers	Units	OrigDataRate	OrigDataStartFrame	OrigNumFrames	
100	100	19	18	m	100	8751	221
Frame#	Time	R_Heel			R_ASIS			R_Pelvis			V_Sacral			L_Pelvis			L_ASIS			Clavical			R_Acromium			L_Acromium			Sternum			Torso			R_Thigh_Med			R_Thigh_Lat			R_Thigh			R_Shank_Med			R_Shank_Lat			R_Shank			R_Toe			
		X1	Y1	Z1	X2	Y2	Z2	X3	Y3	Z3	X4	Y4	Z4	X5	Y5	Z5	X6	Y6	Z6	X7	Y7	Z7	X8	Y8	Z8	X9	Y9	Z9	X10	Y10	Z10	X11	Y11	Z11	X12	Y12	Z12	X13	Y13	Z13	X14	Y14	Z14	X15	Y15	Z15	X16	Y16	Z16	X17	Y17	Z17	X18	Y18	Z18	

8751	43.85	0.16139883	0.042249138	0.11726717	0.056059891	0.74956281	0.13388881	-0.066733841	0.7804491	0.17235518	-0.18892763	0.78723438	-0.060058777	-0.036916836	0.76206122	-0.23553159	0.078298355	0.7255448	-0.18450742	0.32631339	0.98227203	-0.027721722	0.31136276	1.0921926	0.099075409	0.30039523	1.0912551	-0.17518848	0.29056638	0.89303833	-0.046254997	0.29904907	0.94576196	-0.14604256	0.32365457	0.48314215	0.037578381	0.31469955	0.5042619	0.17139241	0.25571713	0.64440991	0.085148285	0.2622066	0.098746773	0.07091478	0.20571725	0.086206917	0.16157578	0.27131711	0.30669238	0.18198076	0.3889328	0.047647949	0.11050986
8752	43.86	0.16140656	0.042230412	0.11721575	0.059794876	0.75074072	0.13372226	-0.062555923	0.78309595	0.17234346	-0.18527454	0.79081415	-0.059864876	-0.033343456	0.76420868	-0.23535405	0.081381454	0.72636218	-0.18434964	0.3321001	0.98161908	-0.027279179	0.31751291	1.0917438	0.099151665	0.30683685	1.0911674	-0.17433434	0.29612189	0.89246863	-0.045786148	0.30487195	0.94570721	-0.14537428	0.3248847	0.48278445	0.036969593	0.31634183	0.50402933	0.17080783	0.25800232	0.64432849	0.084486237	0.26230075	0.098554886	0.070724716	0.20584885	0.086219017	0.161451	0.27213882	0.30657892	0.1815766	0.38902945	0.047549438	0.11038169
8753	43.87	0.16141859	0.042221474	0.11716775	0.063517048	0.75200696	0.13356403	-0.058414791	0.7856933	0.17236678	-0.18167804	0.79428528	-0.059627834	-0.029840715	0.76635919	-0.23515445	0.084452339	0.72730273	-0.18416194	0.33760767	0.98131244	-0.02687969	0.32327051	1.0916099	0.099207359	0.31292709	1.091401	-0.17354187	0.30150092	0.89221198	-0.045290592	0.31040027	0.94597791	-0.14472487	0.32620312	0.48242313	0.0364319	0.31804547	0.50377173	0.17029671	0.26039651	0.64424261	0.08395974	0.26240256	0.098375114	0.070552887	0.20598813	0.086230873	0.16134254	0.27300095	0.30645459	0.1812238	0.38912692	0.047450264	0.11026664
8754	43.88	0.16143272	0.042219166	0.11712324	0.067203041	0.75337134	0.13342369	-0.054338806	0.78823492	0.17243806	-0.17815334	0.79765424	-0.059339176	-0.026430723	0.76853033	-0.23493555	0.087492455	0.72838507	-0.18395576	0.34281311	0.98138818	-0.026536545	0.32863281	1.0918195	0.0992453	0.31865152	1.0919857	-0.17282492	0.30672662	0.89230573	-0.044783714	0.31558444	0.94660162	-0.14411345	0.32758978	0.4820629	0.035960644	0.31979797	0.50349152	0.16985365	0.2629053	0.64417133	0.083583748	0.26250781	0.098209198	0.070399818	0.20613109	0.086241562	0.16125032	0.27388968	0.3063222	0.18092102	0.38922052	0.047356152	0.11016225
8755	43.89	0.16144652	0.042220131	0.11708258	0.070836815	0.75484125	0.13330902	-0.050349659	0.79072223	0.17256885	-0.17470842	0.80093781	-0.058992634	-0.023130062	0.77074103	-0.23469885	0.090489265	0.72962488	-0.18373917	0.34769626	0.98187939	-0.026260296	0.3336073	1.0924001	0.099272141	0.32400519	1.0929496	-0.17219276	0.31181168	0.89278558	-0.044285908	0.32038461	0.94760406	-0.14355991	0.32902148	0.48170767	0.035548477	0.32158218	0.50318973	0.16947119	0.26551984	0.64412427	0.08336068	0.26261197	0.098058372	0.070265526	0.20627238	0.086250275	0.16117355	0.27478958	0.30618539	0.18066473	0.38930423	0.047273609	0.11006573
8756	43.9	0.16145871	0.042221584	0.11704768	0.07440995	0.75641956	0.13322739	-0.046459114	0.79316479	0.17276668	-0.17134412	0.80416211	-0.058584698	-0.019948187	0.77301117	-0.23444405	0.093436012	0.73103351	-0.18351588	0.35224301	0.98281256	-0.02605678	0.3382113	1.093376	0.099296967	0.32899301	1.0943168	-0.17164975	0.31675009	0.89368323	-0.043822891	0.32477411	0.94900647	-0.1430806	0.33047467	0.48135989	0.03518623	0.32337695	0.50286554	0.16914108	0.26821616	0.64410138	0.083279282	0.26271088	0.097923363	0.070149384	0.20640668	0.086256386	0.16111151	0.27568597	0.30604776	0.18045012	0.38937228	0.047208996	0.10997387
8757	43.91	0.16147002	0.042221893	0.11702267	0.077921448	0.75810559	0.133185	-0.042668144	0.79558118	0.17303412	-0.16805486	0.80735931	-0.058114571	-0.016886629	0.77535852	-0.23416908	0.096329811	0.73261798	-0.18328571	0.35644885	0.98420551	-0.025925554	0.34247052	1.0947654	0.099329926	0.33362921	1.0961027	-0.17119524	0.32151599	0.89502338	-0.043424847	0.32873935	0.95082312	-0.14268564	0.33192761	0.48102094	0.03486393	0.32516199	0.50251996	0.16885455	0.27096246	0.6440976	0.083317657	0.26280148	0.097804375	0.070050156	0.20652994	0.08625946	0.16106381	0.27656766	0.3059118	0.18027167	0.38941965	0.047167633	0.1098828
8758	43.92	0.16148175	0.042220409	0.11701249	0.081375961	0.75989783	0.13318405	-0.038968189	0.79799896	0.17336874	-0.16483099	0.81056543	-0.057583729	-0.013939673	0.77779858	-0.23387018	0.099169632	0.7343797	-0.18304558	0.36032245	0.98606506	-0.025859032	0.34641522	1.0965804	0.099379654	0.33793466	1.0983138	-0.17082378	0.32607104	0.89682385	-0.043123066	0.33228793	0.95305908	-0.14237762	0.33336157	0.48069174	0.034571552	0.32692142	0.50215762	0.16860208	0.27372516	0.64410803	0.083447868	0.2628815	0.097701202	0.069965828	0.20664029	0.086259697	0.16103023	0.27742758	0.30577847	0.18012314	0.38944193	0.047153133	0.1097878
8759	43.93	0.1614938	0.0422169	0.11701987	0.084780968	0.76179712	0.13321979	-0.035343891	0.80045129	0.17376398	-0.16166118	0.81381665	-0.056994938	-0.011096599	0.7803432	-0.23354257	0.1019544	0.73631323	-0.1827907	0.36388617	0.98838831	-0.025843025	0.3500762	1.0988234	0.099450996	0.34193402	1.1009449	-0.17052531	0.33037729	0.89909424	-0.042943062	0.33547244	0.95571161	-0.1421514	0.33476199	0.4803743	0.034299294	0.32864191	0.50178714	0.1683739	0.27647293	0.64413123	0.083639038	0.26294824	0.097613045	0.069893333	0.20673877	0.086258186	0.16101047	0.27826187	0.30564783	0.17999751	0.38943646	0.04716732	0.10968396
8760	43.94	0.16150401	0.04221125	0.11704401	0.088144707	0.7638067	0.13328183	-0.031776823	0.80297247	0.17421104	-0.15853424	0.81714789	-0.056350761	-0.008344841	0.78300012	-0.23318112	0.10468114	0.73840613	-0.18251515	0.36717422	0.99116327	-0.025859085	0.35348373	1.1014899	0.099544479	0.34565265	1.103983	-0.17028621	0.33440585	0.90183423	-0.042895432	0.33838858	0.95877069	-0.14199565	0.33611749	0.480073	0.034038231	0.33031046	0.50141956	0.16816057	0.27918146	0.64417249	0.083858086	0.26299893	0.09753846	0.069828598	0.20682948	0.086257156	0.16100389	0.27906757	0.30551999	0.1798875	0.38940381	0.047210953	0.10956772
8761	43.95	0.16150932	0.042203484	0.11708153	0.091474533	0.76592542	0.13336008	-0.028249229	0.80559308	0.17470143	-0.15544128	0.82058917	-0.055652397	-0.0056733093	0.78577399	-0.23278065	0.10734347	0.74064136	-0.18221265	0.37022763	0.99437164	-0.025887962	0.35666809	1.1045708	0.099656891	0.34911426	1.1074086	-0.170091	0.33814038	0.90503052	-0.042969112	0.34113248	0.96221973	-0.14189726	0.33741394	0.4797937	0.033781868	0.33191364	0.50106787	0.16795386	0.28183405	0.64424414	0.084073128	0.2630311	0.097475586	0.069767372	0.20691711	0.086258888	0.16100879	0.27983997	0.305396	0.17978606	0.38934818	0.047283989	0.10943833
8762	43.96	0.16150702	0.04219368	0.11712843	0.09477494	0.76814465	0.13344933	-0.02474699	0.80833569	0.17522871	-0.15237704	0.82416327	-0.054899059	-0.0030752809	0.78866705	-0.23233684	0.10993097	0.74300128	-0.18187799	0.37308795	0.99799072	-0.025912977	0.35965842	1.1080531	0.099781853	0.35234015	1.1111981	-0.16992415	0.341578	0.90865576	-0.043132191	0.34376526	0.96603638	-0.14184427	0.33862784	0.47954175	0.033527523	0.33343689	0.50074619	0.16774727	0.28441708	0.64436005	0.084260872	0.26304324	0.097422745	0.069706123	0.20700316	0.086264061	0.16102211	0.28057071	0.30527783	0.17968765	0.38927448	0.047384502	0.1092974
8763	43.97	0.16149522	0.042181862	0.11718144	0.098046249	0.77045172	0.13354651	-0.021261673	0.81121454	0.17578909	-0.14934087	0.82788263	-0.054088295	-0.00054997081	0.79168048	-0.23184683	0.11242992	0.74547064	-0.1815085	0.3757905	1.0019938	-0.025922022	0.36248218	1.111921	0.09991066	0.355349	1.1153265	-0.16977153	0.34472882	0.91267175	-0.043341091	0.34631522	0.97019348	-0.14182585	0.33972781	0.47932129	0.03327589	0.33486334	0.5004664	0.16753712	0.2869165	0.64453131	0.084410599	0.26303464	0.09737883	0.069642738	0.20708458	0.086271851	0.16103984	0.28124823	0.30516882	0.17958974	0.38918607	0.047508286	0.10914735
8764	43.98	0.16147256	0.042168041	0.11723849	0.10128445	0.77283679	0.13364581	-0.01779155	0.81423438	0.17638057	-0.14633702	0.83174994	-0.053217598	0.0018977029	0.79481458	-0.23131018	0.11482491	0.74803931	-0.18110501	0.37836017	1.0063499	-0.025907785	0.36516342	1.1161552	0.10003309	0.35815683	1.1197654	-0.16962125	0.34761111	0.91703387	-0.043552673	0.34879337	0.97466003	-0.14183051	0.34068307	0.47913657	0.033029236	0.33617233	0.50023602	0.16732265	0.28931793	0.64476428	0.084521774	0.26300519	0.097343498	0.069576347	0.20715518	0.08628138	0.16105804	0.28185901	0.30507355	0.17949345	0.3890845	0.047649776	0.10899048
8765	43.99	0.16143828	0.042152344	0.1172984	0.10448213	0.77529584	0.13374007	-0.014340899	0.81739111	0.17700163	-0.14337401	0.83576013	-0.05228643	0.0042585831	0.79807043	-0.23072888	0.1171008	0.75070239	-0.18067238	0.380811	1.0110229	-0.025867323	0.36772092	1.1207299	0.10013788	0.36077573	1.1244828	-0.16946434	0.35024484	0.92169476	-0.043733467	0.35120554	0.97940057	-0.14184518	0.34147144	0.47899197	0.032789791	0.33734293	0.50005765	0.1671044	0.29160941	0.64506219	0.084599976	0.26295554	0.09731694	0.069507187	0.20720844	0.086292442	0.1610733	0.28239017	0.30499701	0.17940277	0.38897086	0.047803329	0.10882847
8766	44	0.16139215	0.042135109	0.11736068	0.10763047	0.77782825	0.13382616	-0.010918176	0.82067462	0.17764999	-0.14046327	0.83990326	-0.051297348	0.0065214257	0.80144897	-0.23010732	0.11924484	0.75345953	-0.18021913	0.38314917	1.0159716	-0.02580179	0.37016556	1.1256112	0.10021355	0.36321341	1.1294437	-0.16929483	0.35264761	0.92660712	-0.043864174	0.35355786	0.98437677	-0.14185622	0.34208286	0.47889145	0.032558575	0.33835892	0.49993033	0.16688181	0.29378384	0.64542584	0.084653419	0.26288736	0.097299431	0.06943634	0.20724052	0.086305054	0.16108336	0.28283209	0.30494308	0.17932246	0.38884619	0.047964096	0.10866242
8767	44.01	0.16133475	0.042116875	0.11742531	0.11072014	0.78043689	0.13390681	-0.0075340753	0.82407117	0.1783221	-0.13761653	0.84416595	-0.050255898	0.0086756983	0.80495068	-0.22945129	0.12124887	0.7563125	-0.17975655	0.38537665	1.0211514	-0.025716005	0.37249796	1.1307574	0.10024982	0.36547269	1.1346129	-0.1691096	0.35483731	0.93172705	-0.043940125	0.35585687	0.98954932	-0.14185118	0.34251935	0.47883713	0.032334846	0.33921207	0.49985107	0.16665269	0.29584033	0.64585498	0.084691032	0.26280295	0.097290894	0.069365379	0.20725212	0.086318573	0.16108752	0.28318063	0.30491406	0.17925653	0.38871234	0.048128361	0.10849287
8768	44.02	0.16126721	0.042098343	0.11749249	0.11374158	0.78312683	0.13399001	-0.0041997743	0.82756683	0.17901315	-0.13484346	0.84853235	-0.04916996	0.010714478	0.80857324	-0.22876727	0.12311054	0.759263	-0.17929681	0.38749246	1.0265172	-0.025617579	0.37470917	1.1361216	0.10023948	0.36755286	1.1399573	-0.16890823	0.35683813	0.93701575	-0.043968513	0.35810596	0.99488177	-0.14182043	0.34279196	0.47882898	0.032116692	0.33990295	0.4998161	0.16641454	0.29778137	0.64634607	0.084721962	0.26270462	0.097290733	0.069295914	0.20724773	0.086331619	0.1610872	0.28343875	0.30491013	0.17920656	0.38857175	0.048293354	0.10831982
8769	44.03	0.16119109	0.042080219	0.11756275	0.11668633	0.78590265	0.13408777	-0.00092528033	0.83115045	0.17971727	-0.13215047	0.85298468	-0.048048939	0.012636307	0.81231085	-0.22806194	0.12483395	0.76231012	-0.17885115	0.38949246	1.0320269	-0.025515989	0.37678427	1.1416549	0.10017966	0.36945227	1.1454481	-0.16869321	0.35867737	0.94244019	-0.043963753	0.36030136	1.0003434	-0.14175764	0.34291727	0.47886545	0.031902607	0.34043982	0.49982169	0.16616702	0.29960947	0.64689075	0.08475544	0.26259418	0.097297981	0.069229309	0.20723279	0.086342575	0.16108545	0.28361557	0.30492999	0.17917123	0.3884267	0.048456909	0.10814291
